<svg id="Layer_1" viewBox="0 0 24 24" xmlns="http://www.w3.org/2000/svg" data-name="Layer 1"><path d="m21.97 3.758c-.082-.332-.329-.599-.653-.706-.129-.043-3.225-1.052-9.316-1.052s-9.189 1.009-9.317 1.052c-.324.107-.571.374-.653.706-.042.168-1.03 4.166-1.03 8.242s.988 8.074 1.03 8.242c.082.332.329.599.653.706.129.043 3.225 1.052 9.316 1.052s9.188-1.009 9.316-1.052c.324-.107.571-.374.653-.706.042-.168 1.03-4.166 1.03-8.242s-.988-8.074-1.03-8.242zm-9.97.242c4.344 0 7.079.541 8.158.806.105.484.259 1.259.407 2.194h-17.13c.148-.935.302-1.71.407-2.194 1.081-.265 3.816-.806 8.158-.806zm0 16c-4.344 0-7.079-.541-8.158-.806-.264-1.218-.842-4.222-.842-7.194 0-1.021.071-2.043.172-3h2.828v8c0 .553.447 1 1 1h5c.553 0 1-.447 1-1s-.447-1-1-1h-4v-2h2c.553 0 1-.447 1-1s-.447-1-1-1h-2v-3h12.829c.1.956.171 1.977.171 3 0 2.966-.578 5.976-.842 7.194-1.081.265-3.816.806-8.158.806zm6-3c0 .553-.447 1-1 1h-2c-.553 0-1-.447-1-1s.447-1 1-1h2c.553 0 1 .447 1 1zm-3-3h-2c-.553 0-1-.447-1-1s.447-1 1-1h2c.553 0 1 .447 1 1s-.447 1-1 1z"/></svg>