<svg id="Layer_1" viewBox="0 0 24 24" xmlns="http://www.w3.org/2000/svg" data-name="Layer 1"><path d="m11.743 12.478c-.01 0-.972.005-1.324.065-.28.048-.509.25-.592.521-.012.04-.292.981-.292 2.555 0 1.847.244 2.5.35 2.695.11.205.31.346.538.384.351.058 1.311.062 1.32.062 2.069 0 3.119-1.057 3.119-3.142s-1.05-3.142-3.119-3.142zm-.607 4.771c-.049-.309-.101-.825-.101-1.629 0-.711.064-1.266.125-1.629 1.56-.057 2.202.019 2.202 1.629s-.699 1.688-2.227 1.629z"/><path d="m19.529 12.506c-.207-.017-.427-.028-.652-.028-1.18 0-2.188.293-2.23.306-.246.072-.438.266-.509.512-.012.041-.291 1.027-.291 2.324s.297 2.519.31 2.57c.084.342.495.661.906.55.4-.108.648-.504.551-.907-.002-.008-.159-.66-.231-1.463h1.791c.414 0 .75-.336.75-.75s-.336-.75-.75-.75h-1.791c.028-.295.068-.55.105-.745.451-.09 1.249-.179 1.917-.124.415.031.775-.271.81-.685.035-.413-.272-.775-.685-.81z"/><path d="m5.917 12.479s-.619.002-.848.037c-.33.052-.587.315-.629.647-.006.043-.136 1.086-.136 2.472 0 1.432.233 2.496.243 2.54.078.35.463.693.895.569.398-.114.659-.49.57-.895-.002-.006-.093-.427-.154-1.077h.059c1.829 0 2.757-.722 2.757-2.147s-.928-2.146-2.757-2.146zm0 2.793c-.036 0-.073 0-.109 0 .009-.511.062-1.293.062-1.293 1.257 0 1.305.3 1.305.646 0 .333 0 .647-1.257.647z"/><path d="m22.584 6.981c-.046-.236-.175-.447-.364-.596l-6.282-4.928c-.128-.101-.278-.168-.438-.197-.961-.174-2.062-.259-3.367-.259-4.857-.001-8.98.77-9.154.802-.371.07-.671.344-.774.708-.05.171-1.205 4.269-1.205 9.489 0 5.279 1.164 8.977 1.214 9.132.102.319.357.566.68.657.174.05 4.327 1.211 9.239 1.211s9.064-1.161 9.24-1.21c.347-.098.613-.375.699-.726.038-.155.928-3.863.928-9.064 0-1.856-.147-3.638-.416-5.019zm-2.847-.002c-1.69.042-3.231-.085-4.087-.176-.087-.62-.185-1.677-.156-3.152l4.243 3.329zm.515 13.033c-1.276.307-4.517.988-8.119.988-3.64 0-6.913-.697-8.16-.999-.304-1.16-.973-4.156-.973-8.001 0-3.806.666-7.043.975-8.337 1.318-.211 4.565-.663 8.158-.663.493 0 .951.013 1.378.039-.123 3.176.298 4.843.318 4.918.101.388.424.679.82.738.107.016 2.008.293 4.385.293.583 0 1.194-.017 1.814-.059.084.799.151 1.826.151 3.07 0 3.792-.507 6.8-.748 8.012z"/></svg>