<svg id="Layer_1" viewBox="0 0 24 24" xmlns="http://www.w3.org/2000/svg" data-name="Layer 1"><path d="m15 19v3c.019.661-.697 1.176-1.316.948-1.868-.622-3.472-1.827-4.516-3.394-.109-.164-.168-.357-.168-.555v-3.379c-2.644-1.966-5.265-4.28-6.901-7.688-.239-.498-.029-1.095.469-1.334.496-.24 1.095-.029 1.334.469 1.53 3.187 4.119 5.363 6.688 7.241.258.188.41.488.41.808v3.568c.525.711 1.209 1.315 2 1.774v-1.459c0-.553.448-1 1-1s1 .447 1 1zm7.707 3.707c-.391.391-1.023.391-1.414 0l-20-20c-.391-.391-.391-1.023 0-1.414s1.023-.391 1.414 0l.505.505c.045-.014 5.34-.798 8.787-.798 5.054 0 9.989.978 10.197 1.02.542.108.892.636.784 1.177-.095.475-.512.802-.977.803 0 .256 0 .589-.003 1.009 0 .02-.057 2.093-.457 2.924-1.258 2.621-2.952 4.741-5.412 6.785l6.576 6.576c.391.391.391 1.023 0 1.414zm-7.997-9.411c2.308-1.89 3.88-3.832 5.031-6.229.113-.267.254-1.485.259-2.076.005-.643.003-1.096.001-1.319-1.871-.288-4.946-.673-8.001-.673-2.611 0-5.226.282-7.052.534z"/></svg>