<svg id="Layer_1" viewBox="0 0 24 24" xmlns="http://www.w3.org/2000/svg" data-name="Layer 1"><path d="m21.427 8.843c-.339-.437-.968-.516-1.403-.178-.437.338-.517.966-.179 1.403.777 1.003 1.155 2.501 1.155 4.579 0 1.882-.226 3.791-.671 5.681-1.858.435-3.853.672-5.68.672-2.137 0-3.589-.362-4.569-1.14-.433-.344-1.061-.27-1.404.162-.344.433-.271 1.062.162 1.405 1.353 1.073 3.199 1.573 5.812 1.573 2.796 0 5.218-.478 6.757-.878.351-.091.625-.365.716-.716.583-2.242.878-4.516.878-6.759 0-2.538-.515-4.437-1.573-5.804z"/><path d="m17.7 9.354c0-7.488-4.765-8.354-8.349-8.354s-8.351.866-8.351 8.354c0 2.243.295 4.517.878 6.759.091.351.365.625.716.716 1.541.401 3.964.878 6.757.878 3.584 0 8.35-.866 8.35-8.354zm-14.7 0c0-5.291 2.43-6.354 6.351-6.354s6.35 1.063 6.35 6.354-2.43 6.354-6.35 6.354c-1.825 0-3.819-.237-5.68-.672-.445-1.891-.671-3.799-.671-5.681z"/><path d="m9.345 8.856c-.55.003-.994.45-.994 1v.662c0 .552.447 1 1 1 .476 0 .873-.332.975-.776 1.341-.333 2.106-1.384 2.136-3.014-.033-1.925-1.193-3.081-3.117-3.094-1.909.013-3.069 1.169-3.104 3.093-.01.552.43 1.008.981 1.018h.019c.544 0 .99-.436 1-.982.016-.849.287-1.124 1.104-1.129.811.005 1.104.3 1.117 1.092-.016.86-.276 1.124-1.116 1.129z"/><circle cx="9.35" cy="13.28" r=".997"/></svg>