<?xml version="1.0" encoding="UTF-8"?>
<svg xmlns="http://www.w3.org/2000/svg" id="Layer_1" data-name="Layer 1" viewBox="0 0 24 24">
  <path d="M12.006,1s-.008,0-.013,0C4.946,1.044,1.154,4.842,1.027,12.018c.13,7.144,3.923,10.941,10.973,10.982h9.974c.553,0,1-.448,1-1V11.983c-.122-7.037-4.017-10.938-10.967-10.983Zm8.967,20H12.006c-6.014-.035-8.868-2.901-8.979-8.982,.107-6.028,3.042-8.979,8.973-9.018,5.852,.041,8.872,3.074,8.974,9v9Z"/>
  <path d="M15.663,8.336c-.391-.391-1.023-.391-1.414,0l-2.249,2.249-2.249-2.249c-.391-.391-1.023-.391-1.414,0s-.391,1.023,0,1.414l2.249,2.25-2.249,2.25c-.391,.391-.421,1.057,0,1.414,.659,.558,1.219,.195,1.414,0l2.249-2.249,2.249,2.249c.195,.195,.808,.576,1.414,0,.4-.381,.391-1.023,0-1.414l-2.249-2.25,2.249-2.25c.391-.391,.391-1.023,0-1.414Z"/>
</svg>
