<?xml version="1.0" encoding="UTF-8"?>
<svg xmlns="http://www.w3.org/2000/svg" id="Layer_1" data-name="Layer 1" viewBox="0 0 24 24">
  <path d="M22.048,6.313h0c-.687-2.045-2.317-3.675-4.361-4.361-3.774-1.266-7.601-1.266-11.374,0-2.045,.686-3.675,2.316-4.361,4.36-1.266,3.774-1.266,7.6,0,11.374,.686,2.044,2.316,3.675,4.361,4.361,1.884,.632,3.797,.952,5.687,.952,3.022,0,6.084-.398,9.101-1.183,.351-.091,.625-.365,.716-.716,.785-3.017,1.183-6.079,1.183-9.101,0-1.889-.32-3.802-.952-5.687Zm-2.022,13.712c-2.667,.647-5.364,.975-8.025,.975-1.672,0-3.372-.286-5.05-.849-1.454-.488-2.613-1.647-3.101-3.101-1.125-3.351-1.125-6.75,0-10.101,.487-1.454,1.646-2.613,3.101-3.1,1.675-.562,3.363-.844,5.05-.844s3.375,.281,5.051,.844c1.454,.487,2.613,1.646,3.101,3.101,.563,1.679,.849,3.378,.849,5.05,0,2.662-.328,5.358-.975,8.025Z"/>
  <path d="M16.425,8.671c-.492-.255-1.094-.061-1.347,.429-1.368,2.646-3.047,3.817-3.772,4.226-.507-.285-1.484-.943-2.486-2.214-.342-.434-.97-.507-1.405-.166-.434,.342-.507,.971-.166,1.405,1.747,2.213,3.495,2.943,3.689,3.019,.118,.046,.243,.069,.367,.069,.119,0,.237-.021,.35-.063,.123-.046,3.038-1.175,5.199-5.358,.254-.491,.062-1.094-.429-1.347Z"/>
</svg>
