<?xml version="1.0" encoding="UTF-8"?>
<svg xmlns="http://www.w3.org/2000/svg" id="Layer_1" data-name="Layer 1" viewBox="0 0 24 24">
  <g>
    <path d="M12,5.793c-4.177,0-6.207,2.03-6.207,6.207,0,5.563,3.542,6.207,6.207,6.207,4.177,0,6.207-2.03,6.207-6.207,0-5.563-3.542-6.207-6.207-6.207Zm0,10.414c-2.664,0-4.207-.688-4.207-4.207s1.543-4.207,4.207-4.207,4.207,.688,4.207,4.207-1.543,4.207-4.207,4.207Z"/>
    <path d="M22.271,9.506c-.158-.25-.419-.417-.712-.456,0,0-.011,0-.03-.004-.182-.585-.416-1.15-.702-1.692l.021-.026c.178-.234,.244-.536,.18-.823-.03-.136-.323-1.355-1.248-2.281-.924-.922-2.144-1.217-2.279-1.247-.295-.066-.591,0-.825,.18l-.026,.021c-.543-.286-1.108-.521-1.692-.702-.003-.02-.004-.03-.004-.03-.039-.292-.206-.553-.455-.711-.118-.075-1.188-.73-2.496-.73s-2.377,.654-2.495,.729c-.249,.158-.417,.419-.456,.712,0,0,0,.011-.004,.03-.584,.181-1.149,.416-1.692,.702-.016-.013-.024-.019-.024-.019-.234-.18-.538-.247-.825-.182-.136,.03-1.356,.323-2.281,1.248s-1.218,2.143-1.248,2.278c-.065,.289,.002,.593,.182,.828,0,0,.007,.008,.019,.024-.286,.541-.521,1.106-.701,1.691-.023,.003-.035,.005-.035,.005-.291,.04-.55,.206-.707,.454-.075,.118-.73,1.188-.73,2.495s.655,2.376,.729,2.494c.158,.25,.419,.417,.712,.456,0,0,.011,0,.03,.004,.181,.584,.415,1.149,.702,1.692l-.021,.026c-.178,.234-.244,.536-.18,.823,.03,.136,.323,1.355,1.248,2.281,.924,.922,2.144,1.217,2.279,1.247,.293,.067,.592-.002,.825-.18l.026-.021c.542,.286,1.107,.521,1.692,.702,.003,.02,.004,.03,.004,.03,.039,.292,.206,.553,.455,.711,.118,.075,1.188,.73,2.496,.73s2.377-.654,2.495-.729c.249-.158,.417-.419,.456-.712,0,0,0-.011,.004-.03,.584-.181,1.149-.416,1.692-.702,.016,.013,.024,.019,.024,.019,.235,.181,.538,.248,.825,.182,.136-.03,1.356-.323,2.281-1.248s1.218-2.143,1.248-2.278c.065-.289-.002-.593-.182-.828,0,0-.006-.008-.019-.023,.286-.543,.521-1.108,.701-1.692,.023-.003,.035-.005,.035-.005,.291-.04,.55-.206,.707-.454,.075-.118,.73-1.188,.73-2.495s-.655-2.376-.729-2.494Zm-1.495,3.521c-.041,.004-.085,.008-.13,.013-.428,.041-.781,.351-.878,.769-.198,.851-.533,1.658-.997,2.402-.228,.364-.196,.834,.077,1.165,.029,.035,.057,.069,.083,.102-.111,.268-.294,.611-.566,.885-.274,.274-.62,.456-.886,.567-.033-.026-.068-.056-.104-.085-.332-.271-.799-.301-1.163-.075-.744,.464-1.553,.799-2.401,.995-.419,.097-.729,.451-.77,.879-.005,.045-.009,.089-.013,.13-.269,.109-.641,.225-1.027,.225s-.761-.115-1.027-.225c-.005-.042-.009-.086-.014-.132-.042-.427-.352-.779-.769-.876-.852-.198-1.66-.533-2.402-.996-.364-.228-.833-.195-1.165,.077-.035,.028-.069,.057-.102,.083-.267-.112-.612-.294-.886-.567s-.456-.619-.567-.885c.026-.033,.055-.067,.084-.104,.272-.332,.303-.8,.076-1.164-.465-.745-.8-1.553-.995-2.4-.097-.418-.449-.728-.877-.77-.046-.005-.09-.009-.131-.014-.11-.268-.226-.64-.226-1.026s.115-.761,.225-1.027c.041-.004,.085-.008,.13-.013,.428-.041,.781-.351,.878-.769,.198-.851,.533-1.658,.997-2.401,.227-.364,.196-.832-.076-1.164-.029-.036-.058-.07-.084-.104,.111-.267,.293-.611,.566-.885s.62-.456,.886-.567c.033,.026,.068,.056,.104,.085,.333,.272,.799,.303,1.163,.075,.744-.464,1.553-.799,2.401-.995,.419-.097,.729-.451,.77-.879,.005-.045,.009-.089,.013-.13,.269-.109,.641-.225,1.027-.225s.761,.115,1.027,.225c.005,.042,.009,.086,.014,.132,.042,.427,.352,.779,.769,.876,.85,.197,1.658,.533,2.403,.996,.363,.229,.833,.196,1.164-.077,.035-.028,.069-.057,.102-.083,.267,.112,.612,.294,.886,.567s.456,.619,.567,.885c-.026,.033-.055,.067-.084,.104-.272,.332-.303,.8-.076,1.164,.463,.742,.798,1.551,.996,2.401,.097,.417,.449,.727,.876,.769,.046,.005,.09,.009,.131,.014,.11,.268,.226,.64,.226,1.026s-.115,.76-.225,1.027Z"/>
  </g>
  <g>
    <path d="M14.03,11.001c-.552,0-.999,.447-.999,.999s.447,.999,.999,.999,.999-.447,.999-.999-.447-.999-.999-.999Z"/>
    <path d="M12,8.97c-.552,0-.999,.447-.999,.999s.447,.999,.999,.999,.999-.447,.999-.999-.447-.999-.999-.999Z"/>
    <path d="M12,13.03c-.552,0-.999,.447-.999,.999s.447,.999,.999,.999,.999-.447,.999-.999-.447-.999-.999-.999Z"/>
    <path d="M9.97,11.007c-.552,0-.999,.447-.999,.999s.447,.999,.999,.999,.999-.447,.999-.999-.447-.999-.999-.999Z"/>
  </g>
</svg>
