<?xml version="1.0" encoding="UTF-8"?>
<svg xmlns="http://www.w3.org/2000/svg" id="Layer_1" data-name="Layer 1" viewBox="0 0 24 24">
  <path d="M22.853,1.491c-.282-.475-.894-.631-1.37-.353-.212,.126-4.796,2.857-9.483,7.408C7.313,3.995,2.729,1.264,2.517,1.138c-.476-.279-1.089-.122-1.37,.353-.281,.476-.124,1.089,.352,1.37,.05,.029,4.562,2.717,9.093,7.107-.014,.014-.028,.029-.041,.043C5.421,15.421,2.274,21.283,2.143,21.53c-.259,.487-.075,1.093,.413,1.353,.149,.08,.311,.117,.469,.117,.358,0,.704-.192,.884-.53,.031-.058,3.147-5.865,8.091-11.079,4.935,5.205,8.061,11.021,8.091,11.079,.18,.338,.526,.53,.884,.53,.159,0,.319-.038,.469-.117,.487-.26,.672-.865,.413-1.353-.131-.247-3.278-6.108-8.408-11.519-.014-.014-.027-.029-.041-.043,4.525-4.383,9.043-7.078,9.093-7.108,.476-.281,.633-.894,.352-1.369Z"/>
</svg>
