<?xml version="1.0" encoding="UTF-8"?>
<svg xmlns="http://www.w3.org/2000/svg" id="Layer_1" data-name="Layer 1" viewBox="0 0 24 24">
  <path d="M19.593,9.658c-.114-.317-.381-.555-.708-.633-.13-.031-3.227-.76-6.885-.76-1.529,0-2.963,.128-4.122,.279-.068-.409-.103-.869-.103-1.373,0-3.488,1.549-4.17,4.225-4.17,2.816,0,3.641,.914,4.011,2.285,.146,.534,.7,.849,1.227,.705,.533-.144,.849-.693,.705-1.226-.912-3.374-3.828-3.764-5.942-3.764-4.188,0-6.225,2.019-6.225,6.17,0,.616,.042,1.175,.128,1.689-.468,.09-.75,.156-.787,.165-.329,.078-.597,.318-.71,.637-.038,.105-.924,2.625-.924,5.971,0,3.375,.887,5.87,.925,5.975,.114,.317,.381,.555,.708,.633,.13,.031,3.227,.76,6.885,.76s6.754-.729,6.884-.76c.329-.078,.597-.318,.71-.637,.038-.105,.924-2.625,.924-5.971,0-3.374-.887-5.87-.925-5.975Zm-1.724,10.753c-1.018,.201-3.319,.589-5.869,.589s-4.854-.389-5.871-.589c-.235-.834-.646-2.604-.646-4.778,0-2.145,.413-3.935,.648-4.779,1.018-.201,3.319-.589,5.869-.589s4.854,.389,5.871,.589c.235,.834,.646,2.605,.646,4.778,0,2.145-.413,3.935-.648,4.779Z"/>
  <path d="M12,13.898c-.553,0-1,.448-1,1v1.468c0,.552,.447,1,1,1s1-.448,1-1v-1.468c0-.552-.447-1-1-1Z"/>
</svg>
