<?xml version="1.0" encoding="UTF-8"?>
<svg xmlns="http://www.w3.org/2000/svg" id="Layer_1" data-name="Layer 1" viewBox="0 0 24 24">
  <path d="M21.793,4c-.112-.319-.378-.559-.706-.639-.172-.042-4.257-1.025-9.087-1.025-4.744,0-8.907,.982-9.082,1.024-.333,.08-.601,.323-.712,.646-.049,.143-1.206,3.536-1.206,7.994s1.156,7.852,1.206,7.994c.112,.324,.383,.568,.717,.646,.178,.042,4.42,1.023,9.078,1.023,4.819,0,8.914-.983,9.086-1.025,.33-.08,.596-.322,.708-.643,.049-.141,1.206-3.51,1.206-7.996,0-4.525-1.158-7.86-1.207-8Zm-9.793,.336c3.591,0,6.82,.589,8.067,.848,.069,.241,.156,.561,.247,.949-.56,.591-1.981,2.025-3.959,3.551-1.642,1.267-3.499,2.381-4.355,2.875-.856-.494-2.71-1.606-4.356-2.876-1.973-1.521-3.39-2.951-3.954-3.545,.091-.388,.177-.71,.246-.953,1.264-.259,4.527-.849,8.064-.849Zm8.064,14.479c-1.251,.26-4.483,.848-8.064,.848-3.472,0-6.785-.593-8.066-.852-.304-1.072-.934-3.668-.934-6.812,0-1.265,.103-2.444,.246-3.471,.77,.742,1.851,1.716,3.177,2.739,2.338,1.804,4.986,3.258,5.098,3.319,.15,.082,.315,.123,.48,.123s.33-.041,.479-.123c.112-.061,2.76-1.515,5.098-3.319,1.329-1.025,2.411-2.001,3.182-2.743,.14,1.021,.241,2.198,.241,3.475,0,3.152-.631,5.748-.936,6.815Z"/>
</svg>
