<svg id="Layer_1" viewBox="0 0 24 24" xmlns="http://www.w3.org/2000/svg" data-name="Layer 1"><path d="m22.243 2.03c-.168-.042-4.157-1.03-8.243-1.03s-8.075.988-8.243 1.03c-.536.134-.861.677-.727 1.213.113.454.521.757.969.757.013 0 .027-.004.04-.005.005.178.009.369.01.563.004.573.144 1.161.402 1.7 1.051 2.188 2.58 4.106 4.547 5.706v3.036c0 .197.059.391.168.555 1.044 1.566 2.647 2.771 4.516 3.394.62.228 1.336-.287 1.316-.948v-5.881c1.989-1.606 3.534-3.538 4.595-5.748.258-.538.397-1.125.402-1.698.002-.232.003-.469.004-.692.445-.002.856-.284.969-.738.135-.536-.191-1.079-.727-1.213zm-2.451 3.476c-.992 2.066-2.472 3.86-4.399 5.332-.247.189-.393.483-.393.795v4.826c-.791-.459-1.475-1.063-2-1.774v-3.204c0-.311-.144-.604-.39-.792-1.906-1.468-3.371-3.25-4.354-5.296-.132-.275-.204-.569-.206-.852-.003-.339-.013-.669-.023-.942 1.498-.274 3.741-.599 5.972-.599 2.246 0 4.504.329 6.001.604 0 .305 0 .685-.004 1.051-.003.281-.073.576-.205.851zm-6.792 14.494v2c.019.661-.697 1.176-1.316.948-1.868-.622-3.472-1.827-4.516-3.394-.109-.164-.168-.357-.168-.555v-3.036c-1.967-1.6-3.496-3.518-4.547-5.706-.194-.405-.453-1.023-.453-1.708v-.828c-.448 0-.855-.303-.969-.757-.134-.536.191-1.079.727-1.213 0 0 .386-.098 1.042-.231.597-.139 1.216.365 1.201.979v2.05c0 .208.083.484.256.843.983 2.046 2.448 3.828 4.354 5.296.246.188.39.481.39.792v3.204c.525.711 1.209 1.315 2 1.774v-.459c0-.553.448-1 1-1s1 .447 1 1z"/></svg>