<?xml version="1.0" encoding="UTF-8"?>
<svg xmlns="http://www.w3.org/2000/svg" id="Layer_1" data-name="Layer 1" viewBox="0 0 24 24">
  <path d="M4.03,11.837c1.141-.541,1.56-.869,2.364-1.826,.355-.423,.301-1.054-.122-1.409-.423-.354-1.054-.3-1.409,.122-.006,.007-.012,.014-.018,.021,.711-3.27,2.888-4.591,7.237-4.591,4.61,0,6.735,1.482,7.334,5.116,.089,.544,.604,.914,1.148,.824s.914-.604,.824-1.149c-1.003-6.087-5.792-6.791-9.307-6.791-3.487,0-8.033,.708-9.214,6.329-.261-.457-.838-.633-1.315-.397-.494,.248-.693,.849-.445,1.342,.556,1.108,.892,1.51,1.872,2.291,.314,.25,.708,.28,1.051,.117Z"/>
  <path d="M22.894,14.571c-.556-1.108-.888-1.516-1.872-2.291-.299-.236-.705-.282-1.051-.117-1.14,.545-1.56,.869-2.364,1.826-.355,.423-.301,1.054,.122,1.409,.425,.355,1.054,.301,1.409-.122,.006-.007,.012-.014,.018-.021-.711,3.27-2.888,4.591-7.237,4.591-4.61,0-6.735-1.482-7.334-5.116-.089-.544-.602-.91-1.148-.824-.545,.09-.914,.604-.824,1.149,1.003,6.087,5.792,6.791,9.307,6.791,3.487,0,8.033-.708,9.214-6.329,.462,.712,1.141,.488,1.315,.397,.491-.255,.693-.849,.445-1.342Z"/>
</svg>
