<?xml version="1.0" encoding="UTF-8"?>
<svg xmlns="http://www.w3.org/2000/svg" id="Layer_1" data-name="Layer 1" viewBox="0 0 24 24">
  <path d="M21.942,13.317c-1.126-2.506-3.603-3.753-3.708-3.806-.281-.138-.611-.137-.892,.003-.104,.052-2.566,1.312-3.703,3.817-.228,.503-.008,1.102,.498,1.324,.623,.273,1.156-.128,1.324-.498,.334-.737,.841-1.338,1.331-1.796v9.639c0,.552,.448,1,1,1s1-.448,1-1V12.351c.491,.455,.997,1.054,1.327,1.786,.226,.504,.818,.727,1.322,.502,.503-.227,.729-.818,.502-1.322Z"/>
  <path d="M13.832,20.921c-.883,.052-1.743,.079-2.558,.079-1.568,0-3.229-.094-4.937-.28-.537-.058-1.017-.333-1.36-.744,.15-1.331,1.203-2.354,2.45-2.354h4.932c.552,0,1-.448,1-1s-.448-1-1-1h-4.252V3.244c.951-.14,2.037-.244,3.167-.244,2.868,0,5.427,.65,6.496,.965,.127,.622,.336,1.752,.509,3.234,.063,.549,.565,.943,1.109,.877,.549-.064,.941-.561,.877-1.109-.283-2.426-.661-3.998-.694-4.1-.099-.295-.33-.528-.625-.629-.146-.051-3.641-1.238-7.672-1.238-2.209,0-4.248,.359-5.569,.66-1.65,.376-2.896,1.756-3.174,3.515-.255,1.618-.56,4.167-.56,7.119,0,2.833,.278,5.272,.512,6.82,.289,1.914,1.785,3.392,3.639,3.594,1.779,.194,3.513,.292,5.153,.292,.854,0,1.754-.028,2.677-.083,.551-.033,.972-.506,.938-1.058-.033-.551-.501-.984-1.058-.938ZM4.506,5.487c.147-.93,.773-1.658,1.601-1.866V15.832c-.718,.234-1.361,.653-1.876,1.206-.143-1.325-.26-2.953-.26-4.745,0-2.823,.292-5.26,.536-6.807Z"/>
</svg>
