<?xml version="1.0" encoding="UTF-8"?>
<svg xmlns="http://www.w3.org/2000/svg" id="Layer_1" data-name="Layer 1" viewBox="0 0 24 24">
  <path d="M22.958,11.805c-.729-2.499-1.892-4.475-3.45-5.899l1.449-1.449c.391-.391,.391-1.023,0-1.414s-1.023-.391-1.414,0l-1.66,1.66c-1.647-.971-3.613-1.478-5.869-1.497-.006,0-.011,0-.017,0-5.576,.046-9.364,3.002-10.956,8.546-.051,.18-.052,.371,0,.55,.714,2.501,1.846,4.454,3.389,5.854l-1.387,1.387c-.391,.391-.391,1.023,0,1.414,.195,.195,.451,.293,.707,.293s.512-.098,.707-.293l1.61-1.61c1.646,.945,3.63,1.429,5.946,1.447,5.669-.044,9.352-2.882,10.946-8.433,.053-.182,.052-.375,0-.556Zm-19.913,.223c1.394-4.549,4.327-6.781,8.959-6.823,1.675,.016,3.143,.343,4.398,.977l-1.616,1.616c-.75-.443-1.688-.679-2.793-.686-3.092,.02-4.826,1.749-4.881,4.87,0,0-.016,1.738,.678,2.813l-1.933,1.933c-1.261-1.111-2.193-2.674-2.812-4.701Zm11.843-.046c-.037,2.052-.876,2.894-2.882,2.906-.508-.003-.942-.059-1.306-.173l4-4c.118,.359,.18,.78,.188,1.268Zm-5.775,.018c.041-2.011,.907-2.875,2.881-2.888,.5,.003,.931,.064,1.295,.184l-3.995,3.995c-.112-.362-.171-.79-.182-1.292Zm2.9,6.794c-1.717-.013-3.2-.323-4.457-.936l1.643-1.643c.748,.436,1.689,.665,2.808,.672,3.091-.018,4.824-1.747,4.882-4.905-.019-1.093-.256-2.022-.691-2.766l1.889-1.889c1.275,1.135,2.234,2.723,2.869,4.759-1.376,4.476-4.309,6.671-8.941,6.707Z"/>
</svg>
