<?xml version="1.0" encoding="UTF-8"?>
<svg xmlns="http://www.w3.org/2000/svg" id="Layer_1" data-name="Layer 1" viewBox="0 0 24 24">
  <path d="M11.994,7.112c-3.092,.02-4.881,1.858-4.881,4.87,0,3.052,1.791,4.887,4.894,4.905,3.091-.018,4.825-1.747,4.882-4.905-.053-3.076-1.833-4.851-4.894-4.871Zm.012,7.775c-2.012-.012-2.851-.849-2.894-2.888,.041-2.011,.907-2.875,2.881-2.888,1.967,.013,2.86,.909,2.894,2.87-.037,2.052-.875,2.894-2.882,2.906Z"/>
  <path d="M22.958,11.805c-1.627-5.578-5.412-8.551-10.944-8.6-.005,0-.011,0-.017,0-5.576,.046-9.364,3.002-10.956,8.546-.051,.18-.052,.371,0,.55,1.596,5.591,5.282,8.448,10.972,8.492,5.669-.044,9.352-2.882,10.946-8.433,.052-.182,.052-.375,0-.556Zm-10.945,6.989c-4.654-.036-7.59-2.25-8.968-6.766,1.394-4.549,4.327-6.781,8.959-6.823,4.529,.042,7.539,2.357,8.95,6.882-1.376,4.476-4.309,6.671-8.941,6.707Z"/>
</svg>
