<svg id="Layer_1" viewBox="0 0 24 24" xmlns="http://www.w3.org/2000/svg" data-name="Layer 1"><path d="m10.812 9.808c.057.02.575.192 1.188.192s1.129-.174 1.186-.193c.278-.097.499-.311.604-.586.035-.091.209-.578.209-1.221 0-.651-.177-1.133-.213-1.223-.105-.267-.319-.475-.588-.573-.093-.034-.591-.204-1.199-.204-.618 0-1.142.182-1.2.202-.276.099-.495.314-.598.589-.034.09-.203.569-.203 1.209s.168 1.124.202 1.213c.105.279.329.497.61.594z"/><path d="m18 8h-2c-.552 0-1 .448-1 1s.448 1 1 1h2c.552 0 1-.448 1-1s-.448-1-1-1z"/><path d="m18 12h-7c-.552 0-1 .448-1 1s.448 1 1 1h7c.552 0 1-.448 1-1s-.448-1-1-1z"/><path d="m18 16h-7c-.552 0-1 .448-1 1s.448 1 1 1h7c.552 0 1-.448 1-1s-.448-1-1-1z"/><path d="m21.959 2.892c-.087-.328-.336-.589-.66-.694-.152-.049-3.773-1.198-8.053-1.198-2.402 0-5.124.375-6.755.747-.483.11-.812.557-.775 1.051.046.6.113 1.542.181 2.661-2.356.158-3.913.865-3.986.899-.315.146-.533.445-.574.79-.014.116-.337 2.875-.337 6.566 0 1.901.053 3.424.163 4.655.231 2.575 4.33 3.559 5.19 3.738 1.184.27 4.213.894 6.893.894 4.271 0 7.9-1.149 8.053-1.198.325-.104.574-.367.661-.696.042-.161 1.04-3.992 1.04-9.105 0-5.157-.999-8.949-1.041-9.108zm-18.804 15.298c-.104-1.171-.155-2.635-.155-4.477 0-2.586.168-4.737.262-5.733.548-.183 1.508-.44 2.743-.525.071 1.483.124 3.086.124 4.544 0 2.646-.267 5.696-.444 7.714-.004.047-.008.093-.012.139-1.222-.405-2.464-1.054-2.518-1.662zm16.998 1.86c-1.122.303-3.872.949-6.907.949-1.991 0-4.227-.381-5.607-.663.012-.143.025-.292.039-.449.18-2.053.452-5.154.452-7.888 0-2.958-.214-6.478-.355-8.475 1.521-.282 3.599-.525 5.472-.525 3.042 0 5.789.646 6.909.949.264 1.196.845 4.26.845 8.051 0 3.762-.583 6.846-.847 8.051z"/></svg>