<?xml version="1.0" encoding="UTF-8"?>
<svg xmlns="http://www.w3.org/2000/svg" id="Layer_1" data-name="Layer 1" viewBox="0 0 24 24">
  <path d="M22.47,12.697c-.487-.262-1.092-.075-1.353,.411-.011,.021-1.098,2.034-3.152,4.093-1.443,1.445-2.882,2.423-3.606,2.873-.748-.474-2.244-1.494-3.621-2.874-.354-.354-.683-.715-.985-1.067-.359-.42-.99-.468-1.41-.109-.419,.359-.468,.991-.109,1.41,.333,.39,.697,.789,1.088,1.18,2.128,2.132,4.441,3.443,4.539,3.499,.152,.085,.321,.128,.49,.128,.162,0,.325-.04,.473-.119,.093-.05,2.299-1.246,4.557-3.508,2.276-2.28,3.453-4.473,3.502-4.565,.259-.487,.074-1.091-.413-1.351Z"/>
  <path d="M11.96,12.28c.313,.957,.623,2.009,.921,3.167,.116,.451,.522,.75,.967,.75,.083,0,.167-.01,.251-.031,.534-.139,.856-.684,.719-1.219C12.282,5.109,8.917,2.264,8.542,1.972c-.356-.277-.855-.283-1.216-.012-.149,.111-3.682,2.855-6.294,12.987-.138,.535,.184,1.08,.719,1.219,.534,.137,1.08-.185,1.218-.719,.298-1.158,.608-2.21,.921-3.167H11.96ZM7.923,4.185c.728,.86,2.013,2.696,3.325,6.096H4.599c1.312-3.403,2.595-5.236,3.324-6.096Z"/>
</svg>
